<?xml version="1.0" encoding="UTF-8"?>
<svg id="Layer_1" xmlns="http://www.w3.org/2000/svg" version="1.1" viewBox="0 0 1092.4 533.9">
  <!-- Generator: Adobe Illustrator 29.8.5, SVG Export Plug-In . SVG Version: 2.1.1 Build 2)  -->
  <defs>
    <style>
      .st0 {
        fill: #181ea9;
      }
    </style>
  </defs>
  <path class="st0" d="M357.4,108.6c-51,0-92.4,41.5-92.4,92.4s41.5,92.4,92.4,92.4,92.4-41.5,92.4-92.4c0-51-41.5-92.4-92.4-92.4M357.4,262.7c-34,0-61.6-27.6-61.6-61.6s27.6-61.6,61.6-61.6,61.6,27.6,61.6,61.6c0,34-27.6,61.6-61.6,61.6M511.5,16.1h30.8v272.8h-30.8V16.1ZM1066.2,113.2v175.6h-30.8v-144.8h-61.6v144.8h-30.8v-144.8h-61.6v144.8h-30.8V113.2h215.7ZM209,81.2l-44.5,44.5c-15.1-10.8-33.6-17.1-53.5-17.1-51,0-92.4,41.5-92.4,92.4s33.4,83.8,77,91.1v33.4c-43.7,7.4-77,45.4-77,91.1s41.5,92.4,92.4,92.4,92.4-41.5,92.4-92.4-33.4-83.8-77-91.1v-33.4c43.7-7.4,77-45.4,77-91.1s-6.4-38.4-17.1-53.5l44.5-44.5-21.8-21.8ZM172.5,416.8c0,34-27.6,61.6-61.6,61.6s-61.6-27.7-61.6-61.6,27.7-61.6,61.6-61.6c34,0,61.6,27.6,61.6,61.6M110.9,262.7c-34,0-61.6-27.6-61.6-61.6s27.7-61.6,61.6-61.6,61.6,27.6,61.6,61.6-27.6,61.6-61.6,61.6M697.9,108.6c-26.2,0-50,9.6-66.9,27-16.5,16.9-25.5,40.2-25.5,65.4s8.8,48.6,24.9,65.4c17,17.7,40.3,27.1,67.6,27.1s59.6-14.2,75.5-35.4l-24.7-18.5c-10.2,13.6-31.1,23.1-50.8,23.1-32,0-54.9-18.7-60.4-47.8h149.7v-15.4c0-24.5-8.7-47.2-24.4-63.9-16.4-17.4-39.5-27-64.9-27M638.3,184.1c6.6-27,29.3-44.7,59.6-44.7s51,17.7,56.9,44.7h-116.6Z"/>
</svg>