<svg width="947" height="141" viewBox="0 0 947 141" fill="none" xmlns="http://www.w3.org/2000/svg">
<path d="M866.035 141H845.931V0H876.086V20.1724H886.207V40.3447H896.259V60.4482H906.311V80.6206H916.431V100.724H926.483V0H946.586V141H916.431V120.896H906.311V100.724H896.259V80.6206H886.207V60.4482H876.086V40.3447H866.035V141Z" fill="#DCE4E5"/>
<path d="M735.224 141H715.121V110.845H725.172V80.6206H735.224V50.3965H745.276V20.1724H755.396V0H785.621V20.1724H795.672V50.3965H805.724V80.6206H815.776V110.845H825.896V141H805.724V110.845H735.224V141ZM745.276 90.6724H795.672V80.6206H785.621V50.3965H775.5V30.2241H765.448V50.3965H755.396V80.6206H745.276V90.6724Z" fill="#DCE4E5"/>
<path d="M699.974 141H609.371V0H629.474V120.896H699.974V141Z" fill="#DCE4E5"/>
<path d="M558.974 141H498.526V130.948H488.474V120.896H478.422V110.845H468.371V30.2241H478.422V20.1724H488.474V10.1206H498.526V0H558.974V10.1206H569.026V20.1724H579.146V30.2241H589.198V50.3965H569.026V40.3447H558.974V30.2241H548.922V20.1724H508.646V30.2241H498.526V40.3447H488.474V100.724H498.526V110.845H508.646V120.896H548.922V110.845H558.974V100.724H569.026V90.6724H589.198V110.845H579.146V120.896H569.026V130.948H558.974V141Z" fill="#DCE4E5"/>
<path d="M372.81 141H352.707V80.6206H342.586V60.4482H332.534V40.3447H322.482V20.1724H312.431V0H332.534V20.1724H342.586V40.3447H352.707V60.4482H372.81V40.3447H382.931V20.1724H392.982V0H413.086V20.1724H403.034V40.3447H392.982V60.4482H382.931V80.6206H372.81V141Z" fill="#DCE4E5"/>
<path d="M206.75 141H186.646V0H206.75V55.4224H277.25V0H297.422V141H277.25V75.5947H206.75V141Z" fill="#DCE4E5"/>
<path d="M60.7925 141H30.5684V120.896H20.5166V80.6206H10.4648V40.3447H0.413086V0H20.5166V40.3447H30.5684V80.6206H40.689V110.845H50.7407V80.6206H60.7925V40.3447H70.9131V0H101.068V40.3447H111.189V80.6206H121.241V110.845H131.292V80.6206H141.413V40.3447H151.465V0H171.568V40.3447H161.517V80.6206H151.465V120.896H141.413V141H111.189V120.896H101.068V80.6206H91.0166V40.3447H80.9648V80.6206H70.9131V120.896H60.7925V141Z" fill="#DCE4E5"/>
</svg>
