<svg width="8" height="8" viewBox="0 0 8 8" fill="none" xmlns="http://www.w3.org/2000/svg">
<path d="M0 0H1.14286V1.14286H0V0ZM2.28571 2.28571H1.14286V1.14286H2.28571V2.28571ZM3.42857 3.42857H2.28571V2.28571H3.42857V3.42857ZM4.57143 3.42857H3.42857V4.57143H2.28571V5.71429H1.14286V6.85714H0V8H1.14286V6.85714H2.28571V5.71429H3.42857V4.57143H4.57143V5.71429H5.71429V6.85714H6.85714V8H8V6.85714H6.85714V5.71429H5.71429V4.57143H4.57143V3.42857ZM5.71429 2.28571V3.42857H4.57143V2.28571H5.71429ZM6.85714 1.14286V2.28571H5.71429V1.14286H6.85714ZM6.85714 1.14286V0H8V1.14286H6.85714Z" fill="#162324"/>
</svg>
