<svg width="353" height="101" viewBox="0 0 353 101" fill="none" xmlns="http://www.w3.org/2000/svg">
<path d="M47.8568 85C44.8801 85 42.3201 84.2984 40.1727 82.891C38.0252 81.4835 36.4008 79.2681 35.2951 76.2491C34.602 74.2124 34.1172 71.7164 33.8408 68.7611C33.5644 65.8102 33.3901 62.7146 33.322 59.483C33.254 56.1791 33.1817 52.9815 33.1137 49.8859C33.1137 49.044 32.9053 48.6188 32.4928 48.6188C32.1484 48.6188 31.7997 48.8995 31.4552 49.4607C30.1412 51.9227 28.5848 54.7334 26.7818 57.897C25.0511 61.0605 23.3203 64.2241 21.5896 67.3877C19.8589 70.5513 18.3025 73.4002 16.9162 75.9302C15.6022 78.3922 14.6667 80.1823 14.1138 81.3092C13.4207 82.8569 12.3151 83.8392 10.7927 84.2601C9.33837 84.7534 7.50558 84.8597 5.29007 84.5748C3.07456 84.2942 1.51817 83.414 0.616656 81.9385C-0.352896 80.3907 -0.178546 78.7749 1.13545 77.0868C2.03696 75.96 3.31694 74.2761 4.97539 72.0268C6.63808 69.7051 8.5049 67.1071 10.5801 64.2241C12.6553 61.2731 14.7687 58.2499 16.9119 55.1543C19.1274 51.9907 21.2026 48.9675 23.1417 46.0845C25.0808 43.1336 26.7053 40.5653 28.0193 38.3882C29.4055 36.1388 30.3028 34.4847 30.7195 33.4302C31.1363 32.448 31.5828 31.3552 32.0676 30.1603C32.5523 28.9655 32.7947 27.7366 32.7947 26.4695C32.7947 21.8304 32.344 18.3479 31.4467 16.0305C30.6175 13.6408 29.4736 12.059 28.0193 11.2851C26.633 10.4432 25.1106 10.018 23.4522 10.018C22.2062 10.018 20.8582 10.2646 19.4038 10.7579C18.0176 11.2511 17.1203 11.7061 16.7036 12.1271C15.9424 12.901 15.2152 13.0413 14.5221 12.548C13.8289 12.0548 13.6206 11.2469 13.9012 10.1243C14.6624 7.52201 16.0487 5.2046 18.0558 3.16358C20.0715 1.05453 22.8738 0 26.4714 0C30.2773 0 33.288 1.08854 35.5035 3.26989C37.719 5.45123 39.3094 8.92947 40.279 13.7089C41.2485 18.4882 41.7333 24.8154 41.7333 32.6903C41.7333 41.9685 41.8736 49.3884 42.15 54.9417C42.4265 60.495 42.8772 64.6791 43.4981 67.4897C44.1189 70.2324 44.9864 72.0608 46.092 72.975C47.27 73.8892 48.72 74.3442 50.4508 74.3442C52.1815 74.3442 53.6698 73.9912 55.1242 73.2896C56.6465 72.588 57.9605 71.6738 59.0704 70.547C59.5552 69.9857 60.108 69.7731 60.7331 69.9135C61.354 70.0538 61.8387 70.4407 62.1874 71.0743C62.6042 71.6356 62.6042 72.3754 62.1874 73.2896C60.7331 76.5255 58.794 79.3022 56.3744 81.6196C54.0228 83.8689 51.1822 84.9958 47.861 84.9958L47.8568 85Z" fill="black"/>
<path d="M88.9052 78.6596C87.9648 78.6596 87.5 78.2214 87.5 77.3505C87.5 76.2765 87.9702 75.7422 88.9052 75.7422C92.5226 75.7422 95.0018 75.304 96.343 74.4331C97.6841 73.5621 98.352 71.9859 98.352 69.7097V14.322C98.352 12.3771 97.8177 10.9398 96.7437 9.99937C95.7392 8.99485 93.3935 8.49259 89.7067 8.49259C88.8358 8.49259 88.3976 7.95826 88.3976 6.88428C88.3976 6.01334 88.8358 5.5752 89.7067 5.5752C90.3105 5.5752 92.0203 5.60725 94.8308 5.67672C97.6467 5.74618 100.863 5.77824 104.481 5.77824H111.315C113.457 5.70877 115.269 5.67672 116.743 5.67672C118.282 5.60725 119.223 5.5752 119.559 5.5752C120.5 5.5752 120.964 6.01334 120.964 6.88428C120.964 7.95826 120.494 8.49259 119.559 8.49259C115.872 8.49259 113.431 8.99485 112.223 9.99937C111.085 10.9398 110.513 12.3771 110.513 14.322V73.5301C110.513 74.8712 111.218 75.5391 112.624 75.5391H128.205C131.485 75.5391 134.371 74.5987 136.85 72.7233C139.399 70.8478 141.541 68.5342 143.283 65.7878C145.094 62.9719 146.5 60.2255 147.504 57.5432C147.707 57.0089 147.974 56.6723 148.306 56.5387C148.642 56.3357 148.941 56.2715 149.209 56.3357C149.743 56.4051 150.08 56.6028 150.213 56.9394C150.347 57.2066 150.416 57.5112 150.416 57.8424V60.3537C150.416 61.8285 150.384 63.6024 150.315 65.6809C150.315 67.69 150.283 69.6349 150.213 71.5104C150.213 73.3858 150.181 74.7964 150.112 75.7315C150.042 76.6024 149.775 77.3077 149.305 77.8421C148.835 78.3764 148.135 78.6489 147.194 78.6489H143.475C141.466 78.5794 138.447 78.5474 134.429 78.5474H103.775C99.4848 78.5474 96.0384 78.5794 93.4202 78.6489H88.8999L88.9052 78.6596Z" fill="black"/>
<path d="M177.39 79.8674C172.565 79.8674 168.376 78.7934 164.828 76.6508C161.275 74.4387 158.528 71.4572 156.589 67.7063C154.644 63.9554 153.677 59.6648 153.677 54.8398C153.677 50.0149 154.649 45.7243 156.589 41.9734C158.534 38.2225 161.28 35.273 164.828 33.1251C168.381 30.9824 172.565 29.9084 177.39 29.9084C182.215 29.9084 186.366 30.9824 189.85 33.1251C193.398 35.2677 196.15 38.2171 198.089 41.9734C200.034 45.7243 201.007 50.0149 201.007 54.8398C201.007 59.6648 200.034 63.9554 198.089 67.7063C196.15 71.4572 193.398 74.4441 189.85 76.6508C186.366 78.7934 182.209 79.8674 177.39 79.8674ZM177.39 76.4478C181.542 76.4478 184.528 74.4708 186.334 70.5168C188.21 66.4934 189.15 61.2677 189.15 54.8345C189.15 48.4013 188.215 43.3092 186.334 39.3552C184.528 35.3318 181.547 33.3228 177.39 33.3228C173.233 33.3228 170.219 35.3318 168.344 39.3552C166.468 43.3092 165.528 48.4707 165.528 54.8345C165.528 61.1983 166.468 66.4934 168.344 70.5168C170.219 74.4708 173.233 76.4478 177.39 76.4478Z" fill="black"/>
<path d="M228.495 100.069C220.187 100.069 214.154 99.0326 210.403 96.9541C206.716 94.8756 204.873 91.9956 204.873 88.3088C204.873 85.696 205.712 83.5854 207.384 81.9771C209.062 80.4383 210.906 79.2307 212.915 78.3598C213.246 78.2262 213.417 77.9911 213.417 77.6545C213.417 77.3178 213.283 77.1201 213.016 77.0507C211.007 76.2439 209.361 75.2393 208.09 74.0371C206.882 72.7654 206.278 71.0877 206.278 69.0092C206.278 67.4703 206.647 66.1933 207.384 65.1888C208.191 64.1148 209.094 63.2812 210.099 62.6775C211.173 62.0096 212.14 61.5394 213.016 61.2722C213.951 60.9356 214.587 60.7005 214.924 60.5669C215.458 60.3638 215.693 60.1287 215.629 59.8616C215.559 59.5944 215.362 59.3593 215.025 59.1563C212.412 57.4144 210.537 55.571 209.399 53.6261C208.261 51.617 207.689 49.2019 207.689 46.386C207.689 43.0999 208.661 40.22 210.606 37.7407C212.551 35.2615 215.095 33.3486 218.247 32.0128C221.394 30.6075 224.782 29.9022 228.399 29.9022C230.809 29.9022 233.288 30.2709 235.837 31.0083C238.38 31.7456 240.528 32.686 242.27 33.8241C243.211 34.4279 243.91 34.3959 244.381 33.7226C245.182 32.5151 246.459 31.409 248.201 30.4045C249.943 29.4 251.754 28.8977 253.63 28.8977C255.772 28.8977 257.45 29.5656 258.658 30.9067C259.929 32.1784 260.565 33.4875 260.565 34.8287C260.565 36.3034 260.095 37.4736 259.16 38.3445C258.225 39.2154 256.916 39.6536 255.238 39.6536C254.164 39.6536 253.395 39.4505 252.924 39.0498C252.454 38.5796 252.054 38.0773 251.717 37.543C251.45 36.9392 251.081 36.437 250.611 36.0362C250.21 35.566 249.441 35.3309 248.297 35.3309C247.827 35.3309 247.426 35.4966 247.09 35.8332C246.753 36.1003 246.518 36.3354 246.384 36.5385C246.117 36.8751 246.181 37.3079 246.587 37.8476C247.528 39.0551 248.196 40.3963 248.596 41.871C248.997 43.3457 249.2 44.8525 249.2 46.3967C249.2 51.2911 247.394 55.2771 243.772 58.3601C240.154 61.3737 235.025 62.8858 228.394 62.8858C226.786 62.8858 225.311 62.8164 223.97 62.6828C222.629 62.4798 221.426 62.2821 220.352 62.079C218.68 61.7424 217.173 61.9454 215.832 62.6828C214.555 63.4202 213.919 64.2216 213.919 65.0979C213.919 66.0383 214.79 66.8398 216.532 67.5131C218.274 68.1168 220.454 68.6191 223.067 69.0198C225.679 69.4206 228.324 69.7572 231.007 70.0244C233.689 70.2274 235.997 70.4251 237.942 70.6281C242.767 71.0984 246.62 72.4715 249.499 74.7478C252.379 77.024 253.822 80.1765 253.822 84.1945C253.822 89.2866 251.578 93.2085 247.09 95.9549C242.666 98.7013 236.467 100.075 228.495 100.075V100.069ZM228.196 96.1473C231.146 96.1473 233.823 95.8481 236.238 95.2443C238.717 94.71 240.662 93.8016 242.067 92.53C243.542 91.2583 244.279 89.5805 244.279 87.502C244.279 85.7601 243.643 84.3495 242.366 83.2809C241.095 82.2763 239.385 81.5069 237.242 80.9673C235.1 80.4329 232.716 80.0268 230.104 79.7597C227.555 79.4925 224.974 79.2254 222.361 78.9529C221.426 78.8193 220.652 78.7872 220.048 78.8513C219.513 78.9208 218.942 79.22 218.338 79.7543C217.264 80.6947 216.291 81.8649 215.421 83.2702C214.614 84.6754 214.213 86.1876 214.213 87.7959C214.213 90.6117 215.319 92.6902 217.531 94.026C219.813 95.4313 223.361 96.1366 228.185 96.1366L228.196 96.1473ZM228.399 59.7601C231.546 59.7601 233.828 58.5204 235.233 56.0412C236.708 53.4925 237.445 50.2759 237.445 46.3914C237.445 42.5069 236.708 39.3223 235.233 36.8431C233.828 34.3638 231.546 33.1242 228.399 33.1242C225.252 33.1242 223.04 34.3638 221.565 36.8431C220.16 39.3223 219.455 42.5069 219.455 46.3914C219.455 50.2759 220.16 53.4925 221.565 56.0412C223.04 58.5204 225.316 59.7601 228.399 59.7601Z" fill="black"/>
<path d="M282.116 79.8674C277.291 79.8674 273.107 78.7934 269.554 76.6508C266.006 74.4387 263.254 71.4572 261.315 67.7063C259.37 63.9554 258.397 59.6648 258.397 54.8398C258.397 50.0149 259.37 45.7243 261.315 41.9734C263.26 38.2225 266.006 35.273 269.554 33.1251C273.107 30.9824 277.296 29.9084 282.116 29.9084C286.935 29.9084 291.098 30.9824 294.581 33.1251C298.129 35.2677 300.881 38.2171 302.821 41.9734C304.766 45.7243 305.738 50.0149 305.738 54.8398C305.738 59.6648 304.766 63.9554 302.821 67.7063C300.876 71.4572 298.129 74.4441 294.581 76.6508C291.098 78.7934 286.941 79.8674 282.116 79.8674ZM282.116 76.4478C286.273 76.4478 289.254 74.4708 291.06 70.5168C292.936 66.4934 293.876 61.2677 293.876 54.8345C293.876 48.4013 292.941 43.3092 291.06 39.3552C289.249 35.3318 286.273 33.3228 282.116 33.3228C277.959 33.3228 274.945 35.3318 273.07 39.3552C271.194 43.3092 270.254 48.4707 270.254 54.8345C270.254 61.1983 271.189 66.4934 273.07 70.5168C274.945 74.4708 277.959 76.4478 282.116 76.4478Z" fill="black"/>
<path d="M333.25 79.8674C330.84 79.8674 328.393 79.4987 325.913 78.7614C323.434 78.0935 321.356 77.4202 319.683 76.7523C318.876 76.4157 318.144 76.2821 317.471 76.3516C316.867 76.4211 316.301 76.6188 315.761 76.9554C315.361 77.2225 314.992 77.5271 314.655 77.8584C314.388 78.1255 314.089 78.4301 313.752 78.7614C313.079 79.4293 312.379 79.6323 311.642 79.3652C310.974 79.098 310.637 78.4942 310.637 77.5538V63.5813C310.637 62.7104 311.006 62.2081 311.743 62.0746C312.55 61.941 313.148 62.2081 313.555 62.8814C318.577 71.1259 325.213 75.2456 333.453 75.2456C336.669 75.2456 339.384 74.5777 341.596 73.2365C343.877 71.8954 345.015 69.9184 345.015 67.3055C345.015 65.5637 344.214 64.2225 342.606 63.2821C340.997 62.3417 338.919 61.6043 336.375 61.07C333.832 60.4662 331.15 59.8304 328.334 59.1625C325.518 58.4946 322.836 57.5863 320.292 56.4481C317.749 55.31 315.67 53.7338 314.062 51.7248C312.454 49.6462 311.647 46.8998 311.647 43.4802C311.647 41.204 312.251 39.024 313.458 36.9454C314.73 34.8669 316.643 33.1945 319.186 31.9175C321.73 30.5763 324.946 29.9084 328.836 29.9084C331.048 29.9084 333.223 30.1756 335.371 30.7153C337.583 31.1855 339.491 31.7519 341.099 32.4251C342.974 33.1625 344.315 33.1945 345.117 32.5266C345.454 32.2595 345.79 31.9923 346.121 31.7198C346.522 31.3832 346.891 31.084 347.227 30.8168C347.831 30.4161 348.366 30.2825 348.836 30.4161C349.37 30.4855 349.643 30.9504 349.643 31.8213V44.3885C349.643 45.2595 349.242 45.7938 348.435 45.9968C347.628 46.1304 347.062 45.8633 346.725 45.19C345.047 41.236 342.67 38.3881 339.587 36.6462C336.504 34.9043 333.421 34.0334 330.338 34.0334C326.854 34.0334 324.209 34.8028 322.398 36.347C320.586 37.8217 319.683 39.5316 319.683 41.4765C319.683 43.0848 320.485 44.3244 322.093 45.1954C323.701 46.0022 325.742 46.6701 328.227 47.2044C330.77 47.6746 333.453 48.2089 336.269 48.8127C339.084 49.347 341.729 50.1859 344.209 51.324C346.752 52.4621 348.83 54.1078 350.439 56.2505C352.047 58.329 352.854 61.1448 352.854 64.6927C352.854 67.5086 352.047 70.0894 350.439 72.435C348.83 74.7112 346.554 76.5226 343.605 77.8637C340.655 79.2049 337.204 79.8728 333.25 79.8728V79.8674Z" fill="black"/>
</svg>
