<svg xmlns="http://www.w3.org/2000/svg" version="1.1" xmlns:xlink="http://www.w3.org/1999/xlink" xmlns:svgjs="http://svgjs.dev/svgjs" width="1000" height="1000"><g clip-path="url(#SvgjsClipPath1007)"><rect width="1000" height="1000" fill="#ffffff"></rect><g transform="matrix(5.132341080724394,0,0,5.132341080724394,217.38764012391061,149.97935090550055)"><svg xmlns="http://www.w3.org/2000/svg" version="1.1" xmlns:xlink="http://www.w3.org/1999/xlink" xmlns:svgjs="http://svgjs.dev/svgjs" width="110.13" height="136.39"><svg id="Layer_1" xmlns="http://www.w3.org/2000/svg" viewBox="0 0 110.13 136.39">
  <defs>
    <style>
      .cls-1 {
        fill: #231f20;
      }
    </style>
  <clipPath id="SvgjsClipPath1007"><rect width="1000" height="1000" x="0" y="0" rx="350" ry="350"></rect></clipPath></defs>
  <path class="cls-1" d="M88.27,30.81h16.69c1.77,0,3.21-1.44,3.21-3.21v-12.84c0-1.77-1.44-3.21-3.21-3.21h-5.26c-1.7,0-3.08-1.38-3.08-3.08V3.21c0-1.77-1.44-3.21-3.21-3.21h-47.49c-1.77,0-3.21,1.44-3.21,3.21v5.26c0,1.7-1.38,3.08-3.08,3.08h-5.26c-1.77,0-3.21,1.44-3.21,3.21v5.26c0,1.7-1.38,3.08-3.08,3.08h-5.26c-1.77,0-3.21,1.44-3.21,3.21,0,0-.77-1.95-.77,34.47,0,32.56.77,29.7.77,29.7,0,1.77,1.44,3.21,3.21,3.21h5.26c1.7,0,3.08,1.38,3.08,3.08v5.39c0,1.7,1.38,3.08,3.08,3.08h5.39c1.7,0,3.08,1.38,3.08,3.08v5.26c0,1.77,1.44,3.21,3.21,3.21h46.21c1.77,0,3.21-1.44,3.21-3.21v-5.26c0-1.7,1.38-3.08,3.08-3.08h8.5c1.77,0,3.21-1.44,3.21-3.21v-15.3c0-1.77-1.44-3.21-3.21-3.21h-19.93c-1.77,0-3.21,1.44-3.21,3.21v7.73c0,1.7-1.38,3.08-3.08,3.08h-23.36c-1.7,0-3.08-1.38-3.08-3.08v-7.83c0-1.77-1.44-3.21-3.21-3.21h-7.83c-1.7,0-2.66.25-3.08-3.08-.13-1.07-.2-2.38-.3-4.13-.25-4.41-.47-2.64-.47-15.89,0-18.52.48-23.85.77-26.42s1.38-3.08,3.08-3.08h7.83c1.77,0,3.21-1.44,3.21-3.21v-5.26c0-1.7,1.38-3.08,3.08-3.08h24.65c1.7,0,3.08,1.38,3.08,3.08v5.26c0,1.77,1.44,3.21,3.21,3.21Z"></path>
  <path class="cls-1" d="M28.49,113.03h-3.79c-.74,0-1.33-.6-1.33-1.33v-3.79c0-1.47-1.19-2.67-2.67-2.67h-10.24c-1.47,0-2.67,1.19-2.67,2.67v3.79c0,.74-.6,1.33-1.33,1.33h-3.79c-1.47,0-2.67,1.19-2.67,2.67v10.24c0,1.47,1.19,2.67,2.67,2.67h3.79c.74,0,1.33.6,1.33,1.33v3.79c0,1.47,1.19,2.67,2.67,2.67h10.24c1.47,0,2.67-1.19,2.67-2.67v-3.79c0-.74.6-1.33,1.33-1.33h3.79c1.47,0,2.67-1.19,2.67-2.67v-10.24c0-1.47-1.19-2.67-2.67-2.67Z"></path>
</svg></svg></g></g></svg>